<svg width="115" height="25" viewBox="0 0 115 25" fill="none" xmlns="http://www.w3.org/2000/svg">
<path d="M34.8965 7.51758H43.4827V9.93137H37.8275V11.4831H42.9654V13.759H37.8275V15.3796H43.5517V17.8279H34.8965V7.51758Z" fill="white"/>
<path d="M51.1719 7.51758H53.896L58.3098 12.9659V7.51758H61.2064V17.8279H58.6202L54.0684 12.1728V17.8279H51.1719V7.51758Z" fill="white"/>
<path d="M68.3447 7.51758H71.6551L74.0689 14.0348L76.4827 7.51758H79.7241L75.4137 17.8969H72.6551L68.3447 7.51758Z" fill="white"/>
<path d="M85.793 12.6899C85.793 9.68986 88.2757 7.31055 91.5516 7.31055C94.8275 7.31055 97.2757 9.68986 97.2757 12.6554V12.6899C97.2757 15.6554 94.793 18.0692 91.5171 18.0692C88.2412 18.0347 85.793 15.6554 85.793 12.6899ZM94.2757 12.6899C94.2757 11.1726 93.1723 9.86227 91.5516 9.86227C89.9309 9.86227 88.8619 11.1381 88.8619 12.6209V12.6554C88.8619 14.1381 89.9654 15.4485 91.5861 15.4485C93.1723 15.4485 94.2757 14.1726 94.2757 12.6899Z" fill="white"/>
<path d="M107 13.9659L102.931 7.51758H106.31L108.482 11.2762L110.689 7.51758H114L109.965 13.9314V17.8279H107V13.9659Z" fill="white"/>
<mask id="mask0" mask-type="alpha" maskUnits="userSpaceOnUse" x="0" y="1" width="20" height="23">
<path fill-rule="evenodd" clip-rule="evenodd" d="M8.75192 7.37438L8.7519 7.37439C6.09452 8.97098 3.44501 10.5629 0.757745 12.1044C0.757745 12.1044 0.723262 12.1044 0.723262 12.0699V11.4837C0.723262 11.1044 0.714642 10.7165 0.706021 10.3285C0.6974 9.9406 0.68878 9.55267 0.68878 9.17336C0.68878 8.65611 0.68878 8.17336 0.654297 7.65611C0.654297 7.55267 0.68878 7.4837 0.792228 7.41473C1.87836 6.75961 2.97312 6.10448 4.06787 5.44935L4.06807 5.44923L4.06822 5.44914C5.163 4.79399 6.25779 4.13885 7.34395 3.4837C8.17154 3.00094 8.96464 2.51818 9.79223 2.00094C9.89568 1.93198 9.96464 1.93198 10.0336 2.00094C10.6715 2.36301 11.3095 2.71646 11.9474 3.06991C12.5853 3.42336 13.2233 3.7768 13.8612 4.13887C13.8755 4.15316 13.8898 4.16152 13.9065 4.17133C13.9302 4.18519 13.9587 4.20192 13.9991 4.24232C12.2381 5.2798 10.4934 6.3281 8.75195 7.37436L8.75192 7.37438ZM19.2066 8.48364V9.65605C19.2066 9.79398 19.1721 9.86295 19.0687 9.89743C18.1722 10.4147 17.2756 10.9664 16.3791 11.5181L16.379 11.5181L16.379 11.5182L16.3789 11.5182L16.3788 11.5182L16.3788 11.5183C15.103 12.3113 13.8272 13.1044 12.5515 13.863L9.55146 15.6216C9.06174 15.9128 8.57203 16.209 8.08036 16.5065L8.08015 16.5066L8.08011 16.5066C7.29091 16.984 6.49669 17.4645 5.68939 17.9319C5.25837 18.1905 4.83597 18.4491 4.41358 18.7077C3.99115 18.9664 3.56871 19.225 3.13766 19.4836C3.03421 19.5526 2.96525 19.5526 2.8618 19.4836C2.51695 19.294 2.16348 19.0957 1.81001 18.8974L1.80991 18.8973L1.8097 18.8972C1.45638 18.699 1.10306 18.5008 0.758351 18.3112C0.654903 18.2767 0.62042 18.2078 0.62042 18.1043C0.62042 17.7423 0.6118 17.3716 0.603179 17.0009C0.594558 16.6302 0.585938 16.2595 0.585938 15.8974C0.585938 15.794 0.62042 15.725 0.723869 15.6561C1.12042 15.4147 1.51697 15.1819 1.91352 14.9492L1.91353 14.9492L1.91355 14.9491L1.91357 14.9491C2.31011 14.7164 2.70664 14.4836 3.10318 14.2423C3.94628 13.7463 4.78938 13.2325 5.61966 12.7266C5.94396 12.529 6.26631 12.3325 6.58594 12.1388C7.56852 11.5527 8.55971 10.958 9.55091 10.3633L9.55149 10.3629C10.5429 9.76811 11.5342 9.17329 12.517 8.58709C13.2411 8.15605 13.9566 7.72501 14.6722 7.29397C15.3877 6.86294 16.1032 6.43191 16.8273 6.00088C16.9308 5.93192 16.9997 5.93192 17.1032 6.00088C17.4135 6.1733 17.7325 6.35433 18.0515 6.53536L18.0517 6.53552L18.052 6.53565C18.3708 6.71659 18.6895 6.89752 18.9997 7.06985C19.1032 7.13881 19.1377 7.1733 19.1377 7.31123L19.2066 8.48364ZM12.7416 17.3284C10.5691 18.6216 8.3967 19.9147 6.20703 21.2078L6.41393 21.3112C7.62082 22.0009 8.79324 22.6561 10.0001 23.3112C10.1036 23.3802 10.1725 23.3802 10.276 23.3112L11.1036 22.794C11.8795 22.3284 12.6468 21.8715 13.4141 21.4146C14.1813 20.9577 14.9485 20.5008 15.7243 20.0354C16.3104 19.6906 16.8965 19.3372 17.4826 18.9838L17.4829 18.9836C18.0691 18.6302 18.6553 18.2767 19.2415 17.9319C19.2533 17.9201 19.2652 17.9093 19.2767 17.8988C19.3321 17.8481 19.3794 17.8048 19.3794 17.6905C19.3622 17.0181 19.3536 16.3371 19.345 15.6561C19.3363 14.975 19.3277 14.294 19.3105 13.6216C19.3105 13.6089 19.3059 13.5963 19.3 13.5803C19.2899 13.5526 19.276 13.5147 19.276 13.4492C17.0864 14.7423 14.914 16.0353 12.7416 17.3284ZM19.1029 13.2768C18.7581 13.4837 18.4132 13.6906 18.1029 13.863C17.6719 14.1216 17.2322 14.3802 16.7926 14.6388C16.3529 14.8975 15.9132 15.1561 15.4822 15.4147C15.3787 15.4837 15.2753 15.4837 15.1718 15.4147C14.7753 15.1906 14.3701 14.9664 13.9649 14.7423C13.5598 14.5182 13.1546 14.294 12.758 14.0699C12.7367 14.0486 12.7154 14.0404 12.686 14.0292C12.6678 14.0222 12.6465 14.0141 12.6201 14.0009C12.8098 13.8802 12.9994 13.7682 13.1891 13.6561L13.1891 13.6561C13.3788 13.544 13.5684 13.432 13.758 13.3113C14.3549 12.9631 14.9517 12.5971 15.5355 12.2389L15.5356 12.2389C15.7614 12.1004 15.9852 11.9631 16.2063 11.8285C16.3098 11.7596 16.3787 11.7596 16.4822 11.8285C17.3443 12.3113 18.1718 12.7596 19.0339 13.2078C19.0339 13.2078 19.0339 13.2423 19.1029 13.2768ZM0.972879 12.193C0.949448 12.2079 0.924204 12.2239 0.896484 12.2423C0.930967 12.3113 0.96545 12.3458 0.999933 12.3113L3.0689 13.863C3.13786 13.932 3.20683 13.8975 3.27579 13.863C3.81027 13.5354 4.34474 13.2165 4.87922 12.8975C5.41371 12.5786 5.9482 12.2596 6.48269 11.932C6.51717 11.8975 6.55166 11.863 6.62062 11.8285C6.60338 11.8285 6.59476 11.8199 6.58614 11.8113C6.57752 11.8027 6.5689 11.7941 6.55166 11.7941C6.13632 11.4662 5.70713 11.1521 5.27286 10.8344C5.02209 10.6509 4.76963 10.4662 4.51717 10.2768C4.41373 10.2079 4.34476 10.2079 4.24131 10.2768C3.72406 10.5699 3.20682 10.8717 2.68957 11.1734C2.17233 11.4751 1.6551 11.7768 1.13786 12.0699C1.08738 12.1204 1.03689 12.1524 0.972879 12.193Z" fill="url(#paint0_linear)"/>
</mask>
<g mask="url(#mask0)">
<path d="M0 -15H20V41H0V-15Z" fill="white"/>
</g>
<defs>
<linearGradient id="paint0_linear" x1="0.585938" y1="1.94922" x2="26.0164" y2="4.33142" gradientUnits="userSpaceOnUse">
<stop stop-color="#B9EA74"/>
<stop offset="0.286483" stop-color="#FCFE54"/>
<stop offset="0.532721" stop-color="#77D591"/>
<stop offset="0.764556" stop-color="#5AC2E0"/>
</linearGradient>
</defs>
</svg>
